<mxfile host="app.diagrams.net" modified="2020-10-26T08:46:14.109Z" agent="5.0 (Windows NT 10.0; Win64; x64) AppleWebKit/537.36 (KHTML, like Gecko) Chrome/86.0.4240.111 Safari/537.36" etag="vNSVc8LMPecYqFSd2NKE" version="13.8.2" type="github">
  <diagram name="Page-1" id="c4acf3e9-155e-7222-9cf6-157b1a14988f">
    <mxGraphModel dx="1038" dy="580" grid="1" gridSize="10" guides="1" tooltips="1" connect="1" arrows="1" fold="1" page="1" pageScale="1" pageWidth="1200" pageHeight="1920" background="#ffffff" math="0" shadow="0">
      <root>
        <mxCell id="0" />
        <mxCell id="1" parent="0" />
        <mxCell id="n6CTJiY0W6eviaq9f81T-15" value="&lt;b&gt;JAWABAN&lt;/b&gt;" style="text;html=1;strokeColor=none;fillColor=none;align=center;verticalAlign=middle;whiteSpace=wrap;rounded=0;" parent="1" vertex="1">
          <mxGeometry x="50" y="270" width="40" height="20" as="geometry" />
        </mxCell>
        <mxCell id="n6CTJiY0W6eviaq9f81T-21" value="&lt;b&gt;MAHASISWA&lt;/b&gt;" style="text;html=1;strokeColor=none;fillColor=none;align=center;verticalAlign=middle;whiteSpace=wrap;rounded=0;" parent="1" vertex="1">
          <mxGeometry x="60" y="350" width="40" height="20" as="geometry" />
        </mxCell>
        <mxCell id="n6CTJiY0W6eviaq9f81T-16" value="" style="shape=table;html=1;whiteSpace=wrap;startSize=0;container=1;collapsible=0;childLayout=tableLayout;" parent="1" vertex="1">
          <mxGeometry x="40" y="370" width="200" height="30" as="geometry" />
        </mxCell>
        <mxCell id="n6CTJiY0W6eviaq9f81T-17" value="" style="shape=partialRectangle;html=1;whiteSpace=wrap;collapsible=0;dropTarget=0;pointerEvents=0;fillColor=none;top=0;left=0;bottom=0;right=0;points=[[0,0.5],[1,0.5]];portConstraint=eastwest;" parent="n6CTJiY0W6eviaq9f81T-16" vertex="1">
          <mxGeometry width="200" height="30" as="geometry" />
        </mxCell>
        <mxCell id="n6CTJiY0W6eviaq9f81T-18" value="&lt;u&gt;NIM&lt;/u&gt;" style="shape=partialRectangle;html=1;whiteSpace=wrap;connectable=0;fillColor=none;top=0;left=0;bottom=0;right=0;overflow=hidden;" parent="n6CTJiY0W6eviaq9f81T-17" vertex="1">
          <mxGeometry width="100" height="30" as="geometry" />
        </mxCell>
        <mxCell id="n6CTJiY0W6eviaq9f81T-20" value="NAMA" style="shape=partialRectangle;html=1;whiteSpace=wrap;connectable=0;fillColor=none;top=0;left=0;bottom=0;right=0;overflow=hidden;" parent="n6CTJiY0W6eviaq9f81T-17" vertex="1">
          <mxGeometry x="100" width="100" height="30" as="geometry" />
        </mxCell>
        <mxCell id="n6CTJiY0W6eviaq9f81T-1" value="" style="shape=table;html=1;whiteSpace=wrap;startSize=0;container=1;collapsible=0;childLayout=tableLayout;" parent="1" vertex="1">
          <mxGeometry x="40" y="290" width="400" height="30" as="geometry" />
        </mxCell>
        <mxCell id="n6CTJiY0W6eviaq9f81T-2" value="" style="shape=partialRectangle;html=1;whiteSpace=wrap;collapsible=0;dropTarget=0;pointerEvents=0;fillColor=none;top=0;left=0;bottom=0;right=0;points=[[0,0.5],[1,0.5]];portConstraint=eastwest;" parent="n6CTJiY0W6eviaq9f81T-1" vertex="1">
          <mxGeometry width="400" height="30" as="geometry" />
        </mxCell>
        <mxCell id="n6CTJiY0W6eviaq9f81T-3" value="NIM" style="shape=partialRectangle;html=1;whiteSpace=wrap;connectable=0;fillColor=none;top=0;left=0;bottom=0;right=0;overflow=hidden;" parent="n6CTJiY0W6eviaq9f81T-2" vertex="1">
          <mxGeometry width="100" height="30" as="geometry" />
        </mxCell>
        <mxCell id="n6CTJiY0W6eviaq9f81T-39" value="&lt;u&gt;ID JAWABAN&lt;/u&gt;" style="shape=partialRectangle;html=1;whiteSpace=wrap;connectable=0;fillColor=none;top=0;left=0;bottom=0;right=0;overflow=hidden;" parent="n6CTJiY0W6eviaq9f81T-2" vertex="1">
          <mxGeometry x="100" width="100" height="30" as="geometry" />
        </mxCell>
        <mxCell id="n6CTJiY0W6eviaq9f81T-40" value="ID SOAL" style="shape=partialRectangle;html=1;whiteSpace=wrap;connectable=0;fillColor=none;top=0;left=0;bottom=0;right=0;overflow=hidden;" parent="n6CTJiY0W6eviaq9f81T-2" vertex="1">
          <mxGeometry x="200" width="100" height="30" as="geometry" />
        </mxCell>
        <mxCell id="n6CTJiY0W6eviaq9f81T-41" value="NILAI" style="shape=partialRectangle;html=1;whiteSpace=wrap;connectable=0;fillColor=none;top=0;left=0;bottom=0;right=0;overflow=hidden;" parent="n6CTJiY0W6eviaq9f81T-2" vertex="1">
          <mxGeometry x="300" width="100" height="30" as="geometry" />
        </mxCell>
        <mxCell id="n6CTJiY0W6eviaq9f81T-23" value="" style="shape=table;html=1;whiteSpace=wrap;startSize=0;container=1;collapsible=0;childLayout=tableLayout;" parent="1" vertex="1">
          <mxGeometry x="40" y="450" width="300" height="30" as="geometry" />
        </mxCell>
        <mxCell id="n6CTJiY0W6eviaq9f81T-24" value="" style="shape=partialRectangle;html=1;whiteSpace=wrap;collapsible=0;dropTarget=0;pointerEvents=0;fillColor=none;top=0;left=0;bottom=0;right=0;points=[[0,0.5],[1,0.5]];portConstraint=eastwest;" parent="n6CTJiY0W6eviaq9f81T-23" vertex="1">
          <mxGeometry width="300" height="30" as="geometry" />
        </mxCell>
        <mxCell id="n6CTJiY0W6eviaq9f81T-25" value="&lt;u&gt;ID KEGIATAN&lt;/u&gt;" style="shape=partialRectangle;html=1;whiteSpace=wrap;connectable=0;fillColor=none;top=0;left=0;bottom=0;right=0;overflow=hidden;" parent="n6CTJiY0W6eviaq9f81T-24" vertex="1">
          <mxGeometry width="100" height="30" as="geometry" />
        </mxCell>
        <mxCell id="n6CTJiY0W6eviaq9f81T-26" value="NAMA" style="shape=partialRectangle;html=1;whiteSpace=wrap;connectable=0;fillColor=none;top=0;left=0;bottom=0;right=0;overflow=hidden;" parent="n6CTJiY0W6eviaq9f81T-24" vertex="1">
          <mxGeometry x="100" width="100" height="30" as="geometry" />
        </mxCell>
        <mxCell id="n6CTJiY0W6eviaq9f81T-38" value="DESKRIPSI" style="shape=partialRectangle;html=1;whiteSpace=wrap;connectable=0;fillColor=none;top=0;left=0;bottom=0;right=0;overflow=hidden;" parent="n6CTJiY0W6eviaq9f81T-24" vertex="1">
          <mxGeometry x="200" width="100" height="30" as="geometry" />
        </mxCell>
        <mxCell id="n6CTJiY0W6eviaq9f81T-27" value="" style="shape=table;html=1;whiteSpace=wrap;startSize=0;container=1;collapsible=0;childLayout=tableLayout;" parent="1" vertex="1">
          <mxGeometry x="40" y="530" width="300" height="30" as="geometry" />
        </mxCell>
        <mxCell id="n6CTJiY0W6eviaq9f81T-28" value="" style="shape=partialRectangle;html=1;whiteSpace=wrap;collapsible=0;dropTarget=0;pointerEvents=0;fillColor=none;top=0;left=0;bottom=0;right=0;points=[[0,0.5],[1,0.5]];portConstraint=eastwest;" parent="n6CTJiY0W6eviaq9f81T-27" vertex="1">
          <mxGeometry width="300" height="30" as="geometry" />
        </mxCell>
        <mxCell id="n6CTJiY0W6eviaq9f81T-29" value="&lt;u&gt;ID TUGAS&lt;/u&gt;" style="shape=partialRectangle;html=1;whiteSpace=wrap;connectable=0;fillColor=none;top=0;left=0;bottom=0;right=0;overflow=hidden;" parent="n6CTJiY0W6eviaq9f81T-28" vertex="1">
          <mxGeometry width="100" height="30" as="geometry" />
        </mxCell>
        <mxCell id="n6CTJiY0W6eviaq9f81T-30" value="NAMA&amp;nbsp;" style="shape=partialRectangle;html=1;whiteSpace=wrap;connectable=0;fillColor=none;top=0;left=0;bottom=0;right=0;overflow=hidden;" parent="n6CTJiY0W6eviaq9f81T-28" vertex="1">
          <mxGeometry x="100" width="100" height="30" as="geometry" />
        </mxCell>
        <mxCell id="n6CTJiY0W6eviaq9f81T-43" value="ID KEGIATAN" style="shape=partialRectangle;html=1;whiteSpace=wrap;connectable=0;fillColor=none;top=0;left=0;bottom=0;right=0;overflow=hidden;" parent="n6CTJiY0W6eviaq9f81T-28" vertex="1">
          <mxGeometry x="200" width="100" height="30" as="geometry" />
        </mxCell>
        <mxCell id="n6CTJiY0W6eviaq9f81T-31" value="" style="shape=table;html=1;whiteSpace=wrap;startSize=0;container=1;collapsible=0;childLayout=tableLayout;" parent="1" vertex="1">
          <mxGeometry x="40" y="610" width="300" height="30" as="geometry" />
        </mxCell>
        <mxCell id="n6CTJiY0W6eviaq9f81T-32" value="" style="shape=partialRectangle;html=1;whiteSpace=wrap;collapsible=0;dropTarget=0;pointerEvents=0;fillColor=none;top=0;left=0;bottom=0;right=0;points=[[0,0.5],[1,0.5]];portConstraint=eastwest;" parent="n6CTJiY0W6eviaq9f81T-31" vertex="1">
          <mxGeometry width="300" height="30" as="geometry" />
        </mxCell>
        <mxCell id="n6CTJiY0W6eviaq9f81T-33" value="&lt;u&gt;ID SOAL&lt;/u&gt;" style="shape=partialRectangle;html=1;whiteSpace=wrap;connectable=0;fillColor=none;top=0;left=0;bottom=0;right=0;overflow=hidden;" parent="n6CTJiY0W6eviaq9f81T-32" vertex="1">
          <mxGeometry width="100" height="30" as="geometry" />
        </mxCell>
        <mxCell id="n6CTJiY0W6eviaq9f81T-34" value="PERTANYAAN" style="shape=partialRectangle;html=1;whiteSpace=wrap;connectable=0;fillColor=none;top=0;left=0;bottom=0;right=0;overflow=hidden;" parent="n6CTJiY0W6eviaq9f81T-32" vertex="1">
          <mxGeometry x="100" width="100" height="30" as="geometry" />
        </mxCell>
        <mxCell id="n6CTJiY0W6eviaq9f81T-42" value="ID TUGAS" style="shape=partialRectangle;html=1;whiteSpace=wrap;connectable=0;fillColor=none;top=0;left=0;bottom=0;right=0;overflow=hidden;" parent="n6CTJiY0W6eviaq9f81T-32" vertex="1">
          <mxGeometry x="200" width="100" height="30" as="geometry" />
        </mxCell>
        <mxCell id="n6CTJiY0W6eviaq9f81T-35" value="&lt;b&gt;KEGIATAN&lt;/b&gt;" style="text;html=1;strokeColor=none;fillColor=none;align=center;verticalAlign=middle;whiteSpace=wrap;rounded=0;" parent="1" vertex="1">
          <mxGeometry x="50" y="430" width="40" height="20" as="geometry" />
        </mxCell>
        <mxCell id="n6CTJiY0W6eviaq9f81T-36" value="&lt;b&gt;TUGAS&lt;/b&gt;" style="text;html=1;strokeColor=none;fillColor=none;align=center;verticalAlign=middle;whiteSpace=wrap;rounded=0;" parent="1" vertex="1">
          <mxGeometry x="40" y="510" width="40" height="20" as="geometry" />
        </mxCell>
        <mxCell id="n6CTJiY0W6eviaq9f81T-37" value="&lt;b&gt;SOAL&lt;/b&gt;" style="text;html=1;strokeColor=none;fillColor=none;align=center;verticalAlign=middle;whiteSpace=wrap;rounded=0;" parent="1" vertex="1">
          <mxGeometry x="40" y="590" width="40" height="20" as="geometry" />
        </mxCell>
        <mxCell id="n6CTJiY0W6eviaq9f81T-44" value="" style="shape=table;html=1;whiteSpace=wrap;startSize=0;container=1;collapsible=0;childLayout=tableLayout;" parent="1" vertex="1">
          <mxGeometry x="40" y="700" width="440" height="30" as="geometry" />
        </mxCell>
        <mxCell id="n6CTJiY0W6eviaq9f81T-45" value="" style="shape=partialRectangle;html=1;whiteSpace=wrap;collapsible=0;dropTarget=0;pointerEvents=0;fillColor=none;top=0;left=0;bottom=0;right=0;points=[[0,0.5],[1,0.5]];portConstraint=eastwest;" parent="n6CTJiY0W6eviaq9f81T-44" vertex="1">
          <mxGeometry width="440" height="30" as="geometry" />
        </mxCell>
        <mxCell id="n6CTJiY0W6eviaq9f81T-46" value="&lt;u&gt;ID KEGIATAN&lt;/u&gt;" style="shape=partialRectangle;html=1;whiteSpace=wrap;connectable=0;fillColor=none;top=0;left=0;bottom=0;right=0;overflow=hidden;" parent="n6CTJiY0W6eviaq9f81T-45" vertex="1">
          <mxGeometry width="112" height="30" as="geometry" />
        </mxCell>
        <mxCell id="n6CTJiY0W6eviaq9f81T-47" value="&lt;u&gt;NIM&lt;/u&gt;" style="shape=partialRectangle;html=1;whiteSpace=wrap;connectable=0;fillColor=none;top=0;left=0;bottom=0;right=0;overflow=hidden;" parent="n6CTJiY0W6eviaq9f81T-45" vertex="1">
          <mxGeometry x="112" width="108" height="30" as="geometry" />
        </mxCell>
        <mxCell id="n6CTJiY0W6eviaq9f81T-48" value="TANGGAL" style="shape=partialRectangle;html=1;whiteSpace=wrap;connectable=0;fillColor=none;top=0;left=0;bottom=0;right=0;overflow=hidden;" parent="n6CTJiY0W6eviaq9f81T-45" vertex="1">
          <mxGeometry x="220" width="112" height="30" as="geometry" />
        </mxCell>
        <mxCell id="n6CTJiY0W6eviaq9f81T-49" value="STATUS ABSENSI" style="shape=partialRectangle;html=1;whiteSpace=wrap;connectable=0;fillColor=none;top=0;left=0;bottom=0;right=0;overflow=hidden;" parent="n6CTJiY0W6eviaq9f81T-45" vertex="1">
          <mxGeometry x="332" width="108" height="30" as="geometry" />
        </mxCell>
        <mxCell id="n6CTJiY0W6eviaq9f81T-50" value="&lt;b&gt;MENGIKUTI&lt;/b&gt;" style="text;html=1;strokeColor=none;fillColor=none;align=center;verticalAlign=middle;whiteSpace=wrap;rounded=0;" parent="1" vertex="1">
          <mxGeometry x="60" y="680" width="40" height="20" as="geometry" />
        </mxCell>
        <mxCell id="n6CTJiY0W6eviaq9f81T-52" value="" style="edgeStyle=segmentEdgeStyle;endArrow=classic;html=1;entryX=0;entryY=0.5;entryDx=0;entryDy=0;exitX=0;exitY=0.5;exitDx=0;exitDy=0;" parent="1" source="n6CTJiY0W6eviaq9f81T-45" target="n6CTJiY0W6eviaq9f81T-24" edge="1">
          <mxGeometry width="50" height="50" relative="1" as="geometry">
            <mxPoint x="250" y="560" as="sourcePoint" />
            <mxPoint x="300" y="510" as="targetPoint" />
            <Array as="points">
              <mxPoint x="20" y="715" />
              <mxPoint x="20" y="465" />
            </Array>
          </mxGeometry>
        </mxCell>
        <mxCell id="n6CTJiY0W6eviaq9f81T-53" value="" style="edgeStyle=segmentEdgeStyle;endArrow=classic;html=1;exitX=0.386;exitY=-0.027;exitDx=0;exitDy=0;exitPerimeter=0;entryX=0;entryY=0.5;entryDx=0;entryDy=0;" parent="1" source="n6CTJiY0W6eviaq9f81T-45" target="n6CTJiY0W6eviaq9f81T-17" edge="1">
          <mxGeometry width="50" height="50" relative="1" as="geometry">
            <mxPoint x="210" y="680" as="sourcePoint" />
            <mxPoint x="10" y="300" as="targetPoint" />
            <Array as="points">
              <mxPoint x="210" y="670" />
              <mxPoint x="10" y="670" />
              <mxPoint x="10" y="385" />
            </Array>
          </mxGeometry>
        </mxCell>
        <mxCell id="n6CTJiY0W6eviaq9f81T-54" value="" style="edgeStyle=elbowEdgeStyle;elbow=vertical;endArrow=classic;html=1;exitX=0.831;exitY=-0.04;exitDx=0;exitDy=0;exitPerimeter=0;entryX=0.18;entryY=1.16;entryDx=0;entryDy=0;entryPerimeter=0;" parent="1" source="n6CTJiY0W6eviaq9f81T-32" target="n6CTJiY0W6eviaq9f81T-28" edge="1">
          <mxGeometry width="50" height="50" relative="1" as="geometry">
            <mxPoint x="250" y="560" as="sourcePoint" />
            <mxPoint x="300" y="510" as="targetPoint" />
          </mxGeometry>
        </mxCell>
        <mxCell id="n6CTJiY0W6eviaq9f81T-55" value="" style="edgeStyle=elbowEdgeStyle;elbow=vertical;endArrow=classic;html=1;entryX=0.18;entryY=1.16;entryDx=0;entryDy=0;entryPerimeter=0;" parent="1" edge="1">
          <mxGeometry width="50" height="50" relative="1" as="geometry">
            <mxPoint x="295" y="530" as="sourcePoint" />
            <mxPoint x="100" y="479.99999999999994" as="targetPoint" />
          </mxGeometry>
        </mxCell>
        <mxCell id="Z-SGaBmdzYlAAI8sMbd_-2" value="" style="edgeStyle=segmentEdgeStyle;endArrow=classic;html=1;exitX=0.621;exitY=0.94;exitDx=0;exitDy=0;exitPerimeter=0;" edge="1" parent="1" source="n6CTJiY0W6eviaq9f81T-2">
          <mxGeometry width="50" height="50" relative="1" as="geometry">
            <mxPoint x="500" y="500" as="sourcePoint" />
            <mxPoint x="113" y="640" as="targetPoint" />
            <Array as="points">
              <mxPoint x="290" y="318" />
              <mxPoint x="290" y="370" />
              <mxPoint x="360" y="370" />
              <mxPoint x="360" y="660" />
              <mxPoint x="113" y="660" />
            </Array>
          </mxGeometry>
        </mxCell>
        <mxCell id="Z-SGaBmdzYlAAI8sMbd_-3" value="" style="endArrow=classic;html=1;exitX=0.211;exitY=1.053;exitDx=0;exitDy=0;exitPerimeter=0;entryX=0.422;entryY=0.013;entryDx=0;entryDy=0;entryPerimeter=0;" edge="1" parent="1" source="n6CTJiY0W6eviaq9f81T-2" target="n6CTJiY0W6eviaq9f81T-17">
          <mxGeometry width="50" height="50" relative="1" as="geometry">
            <mxPoint x="500" y="500" as="sourcePoint" />
            <mxPoint x="550" y="450" as="targetPoint" />
          </mxGeometry>
        </mxCell>
      </root>
    </mxGraphModel>
  </diagram>
</mxfile>
